<svg width="440" height="146" viewBox="0 0 440 146" fill="none" xmlns="http://www.w3.org/2000/svg">
<path d="M332.686 143.355V2.41602H438.994V29.9998H363.491V58.5902H429.933V86.174H363.491V115.771H440V143.355H332.686Z" fill="#1E398D"/>
<path d="M0 143.355V2.41599H33.4226L70.4694 62.013L107.516 2.41599H140.939V143.355H110.134V51.3419L70.4694 111.543H69.664L30.4025 51.9459V143.355H0Z" fill="#1E398D"/>
<path fill-rule="evenodd" clip-rule="evenodd" d="M241.401 -0.000152588C199.253 0.530725 168.554 33.1397 168.554 72.8788V73.2815C168.554 114.563 198.184 145.178 241.401 145.756V117.525C217.628 116.421 200.97 97.8682 200.97 72.8788V72.4761C200.97 48.5302 218.869 28.6065 241.401 28.5837V-0.000152588Z" fill="#FFDD00"/>
<path d="M235.027 72.8778H275.008C291.25 72.8778 304.417 86.0447 304.417 102.287V102.287C304.417 118.529 291.25 131.696 275.008 131.696H263.212" stroke="#FFDD00" stroke-width="28.1878"/>
</svg>
